<svg id="ekJewyf6xvu1" xmlns="http://www.w3.org/2000/svg" xmlns:xlink="http://www.w3.org/1999/xlink" viewBox="0 0 67.5 59" shape-rendering="geometricPrecision" text-rendering="geometricPrecision" project-id="16fa3981be6348efa9c8417a25484191" export-id="90847c0aa01248ee87da3b012dca5a24" cached="false"><g transform="matrix(.238016 0 0 0.238016-1.951731-6.069408)"><g><path d="M64.3,132.1l78.8,136.5c1.2,2.2-.3,5-2.9,5h-56.6c-3.2,0-6.1-1.7-7.8-4.5L9.4,154c-1.6-2.7-1.6-6.2,0-8.9L26.8,115h.1L48.4,77.8h-.1L64.2,50.3c13.1-22.6,45.5-24,59.8-2.2.3.5.6.9.9,1.4l85.5,148c.1.1.2.2.2.3c10.2,17.4,35.3,17.1,45.4-.3l7.7-13.3c-11.6-.6-22.1-6.9-27.9-17.1L157,30.5c-1.2-2.2.3-5,2.9-5h56.5c3.2,0,6.1,1.7,7.8,4.5l66.4,115c1.6,2.7,1.6,6.2,0,8.9l-7.7,13.3L243.8,235l-8.4,14.5c-13.1,22.6-45.7,23.6-59.5,1.4-.2-.4-.6-.9-.8-1.3l-85.5-148c-.1-.1-.2-.2-.2-.3-10.2-17.3-35.3-17-45.3.3L36.3,115c11.7.6,22.2,7,28,17.1Z" fill="#00bba7"/></g></g></svg>
