<svg id="nsh-logo" xmlns="http://www.w3.org/2000/svg" xmlns:xlink="http://www.w3.org/1999/xlink" viewBox="0 0 350 100" shape-rendering="geometricPrecision" text-rendering="geometricPrecision" project-id="449cab3303d84beaa0633ba416a5da33" export-id="d86ad5f4b6934e95929351d7d26ad6e7" cached="false"><g id="nsh-logo-u-svgjsg1526" transform="matrix(.238016 0 0 0.238016 139.29801-5.7)"><g id="nsh-logo-s-g1"><path id="nsh-logo-s-path1" d="M64.3,132.1l78.8,136.5c1.2,2.2-.3,5-2.9,5h-56.6c-3.2,0-6.1-1.7-7.8-4.5L9.4,154c-1.6-2.7-1.6-6.2,0-8.9L26.8,115h.1L48.4,77.8h-.1L64.2,50.3c13.1-22.6,45.5-24,59.8-2.2.3.5.6.9.9,1.4l85.5,148c.1.1.2.2.2.3c10.2,17.4,35.3,17.1,45.4-.3l7.7-13.3c-11.6-.6-22.1-6.9-27.9-17.1L157,30.5c-1.2-2.2.3-5,2.9-5h56.5c3.2,0,6.1,1.7,7.8,4.5l66.4,115c1.6,2.7,1.6,6.2,0,8.9l-7.7,13.3L243.8,235l-8.4,14.5c-13.1,22.6-45.7,23.6-59.5,1.4-.2-.4-.6-.9-.8-1.3l-85.5-148c-.1-.1-.2-.2-.2-.3-10.2-17.3-35.3-17-45.3.3L36.3,115c11.7.6,22.2,7,28,17.1Z" fill="#00bba7"/></g></g><g id="nsh-logo-u-svgjsg1527" transform="matrix(2.12096 0 0 2.12096-2.417894 57.1)"><path id="nsh-logo-s-path2" d="M8.94,7.76h3v12.24h-3l-4.8-7.16v7.16h-3v-12.24h3l4.8,7.16v-7.16ZM21.12,15c-.08-1.46-.74-2.32-2.26-2.32-.42,0-.78.06-1.08.18-.92.42-1.26,1.2-1.26,2.16c0,.32.04.62.14.88.3,1.04,1.2,1.42,2.2,1.42c1.52,0,2.26-.82,2.26-2.32Zm3.8,5h-3c-.2-.5-.38-1-.5-1.52-.68,1.12-1.72,1.62-3,1.62-2.86,0-4.9-2.4-4.9-5.14c0-3.16,2.36-5.06,5.34-5.06c3.18,0,5.18,2.04,5.26,5.1.02.26.02.56.02.92c0,1.4.22,2.8.78,4.08Zm6.6-9.66v2.78h-2.8v1.88c0,1.54,1.02,2.32,2.5,2.32.18,0,.34-.02.48-.04s.26-.04.4-.06v2.78c-.18.02-.32.06-.42.08-.12.02-.32.02-.58.02-3.02,0-5.38-2.06-5.38-5.1v-7.4h3v2.74h2.8ZM40.16,10h3v5c0,3.06-2.12,5.1-5.1,5.1-3.06,0-5.1-2.14-5.1-5.1v-5h3v5c0,1.34.68,2.32,2.1,2.32c1.46,0,2.1-.96,2.1-2.32v-5Zm8,5v5h-3v-4.98c0-3.32,2.44-5.12,5.52-5.12.1,0,.24,0,.38.02s.3.06.44.08v2.9c-.1-.02-.22-.04-.36-.06s-.26-.04-.36-.04c-.5,0-.9.06-1.24.16-.56.2-1.06.58-1.24,1.18-.1.26-.14.56-.14.86Zm11.66,0c-.08-1.46-.74-2.32-2.26-2.32-.42,0-.78.06-1.08.18-.92.42-1.26,1.2-1.26,2.16c0,.32.04.62.14.88.3,1.04,1.2,1.42,2.2,1.42c1.52,0,2.26-.82,2.26-2.32Zm3.8,5h-3c-.2-.5-.38-1-.5-1.52-.68,1.12-1.72,1.62-3,1.62-2.86,0-4.9-2.4-4.9-5.14c0-3.16,2.36-5.06,5.34-5.06c3.18,0,5.18,2.04,5.26,5.1.02.26.02.56.02.92c0,1.4.22,2.8.78,4.08Zm1.1-14h3v14h-3v-14Zm9.04,13.7v-2.82c.24.06.54.12.88.16.34.06.7.1,1.08.12s.76.04,1.16.06.78.04,1.12.04c.94,0,1.6-.06,2-.16.38-.1.58-.28.58-.56c0-.24-.18-.42-.36-.56-.66-.44-1.44-.62-2.22-.8-2.2-.44-4.22-1.32-4.22-3.84c0-2.98,2.82-3.68,5.24-3.68c1.34,0,2.7.14,4,.46v2.82c-.2-.06-.46-.1-.78-.16-.34-.04-.68-.08-1.06-.12-.78-.08-1.52-.12-2.3-.12-.44,0-1.36,0-1.78.16-.28.1-.46.22-.46.54c0,.16.04.3.12.42.08.14.22.24.4.34.54.3,1.24.48,1.84.62.5.12,1,.26,1.52.4c1.76.48,2.92,1.46,2.92,3.34c0,3.1-3.08,3.76-5.56,3.76-1.36,0-2.78-.1-4.12-.42ZM90.6,10.34v2.78h-2.8v1.88c0,1.54,1.02,2.32,2.5,2.32.18,0,.34-.02.48-.04s.26-.04.4-.06v2.78c-.18.02-.32.06-.42.08-.12.02-.32.02-.58.02-3.02,0-5.38-2.06-5.38-5.1v-7.4h3v2.74h2.8Zm6.44,6.98c1.46,0,2.3-.86,2.3-2.32s-.84-2.32-2.3-2.32-2.3.86-2.3,2.32.84,2.32,2.3,2.32Zm0,2.78c-3.08,0-5.3-2.04-5.3-5.1c0-3.16,2.3-5.1,5.3-5.1c3.1,0,5.3,2.04,5.3,5.1c0,3.14-2.32,5.1-5.3,5.1ZM113.96,15v5h-3v-5c0-1.38-.64-2.32-2.1-2.32-1.44,0-2.1.96-2.1,2.32v5h-3v-5c0-3.08,2.12-5.1,5.1-5.1c3.1,0,5.1,2.12,5.1,5.1Zm4.54-1.2c.3.1.64.18,1,.22.36.06.7.08,1.02.08.4,0,1.42-.08,1.42-.66c0-.62-.88-.64-1.32-.64-.88,0-1.64.2-2.12,1Zm5.66,3.08v2.8c-1.12.26-2.24.44-3.4.44-3.18,0-5.54-1.86-5.54-5.08c0-3.18,2.28-5.14,5.3-5.14c2.06,0,4.44.98,4.44,3.32c0,2.32-2.52,3.18-4.46,3.18-.74,0-1.48-.2-2.16-.48.4,1.12,1.6,1.3,2.64,1.3.54,0,1.08-.02,1.62-.1.5-.04,1.08-.1,1.56-.24Zm14.22-9.12h3v12.24h-3v-4.72h-4.4v4.72h-3v-12.24h3v4.74h4.4v-4.74ZM150.56,10h3v5c0,3.06-2.12,5.1-5.1,5.1-3.06,0-5.1-2.14-5.1-5.1v-5h3v5c0,1.34.68,2.32,2.1,2.32c1.46,0,2.1-.96,2.1-2.32v-5Zm8,5c0,1.48.74,2.32,2.24,2.32.42,0,.8-.06,1.1-.2.56-.22.94-.64,1.14-1.22.08-.28.12-.58.12-.9s-.04-.62-.12-.9c-.22-.62-.56-.96-1.14-1.24-.3-.12-.68-.18-1.1-.18-1.5,0-2.24.84-2.24,2.32Zm-3-9h3v5c.68-.78,1.6-1.1,2.62-1.1c2.92,0,4.98,2.34,4.98,5.14c0,3.16-2.34,5.06-5.32,5.06-3.1,0-5.28-2.04-5.28-5.1v-9Z" fill="#00bba7"/></g></svg>
